<svg width="34" height="22" viewBox="0 0 34 22" fill="none" xmlns="http://www.w3.org/2000/svg">
<path fill-rule="evenodd" clip-rule="evenodd" d="M34 1C34 1.55228 33.6701 2 33.2632 2H6.73684C6.3299 2 6 1.55228 6 1C6 0.447715 6.3299 0 6.73684 0H33.2632C33.6701 0 34 0.447715 34 1Z" fill="white"/>
<path fill-rule="evenodd" clip-rule="evenodd" d="M10 11C10 10.4477 10.2828 10 10.6316 10H33.3684C33.7172 10 34 10.4477 34 11C34 11.5523 33.7172 12 33.3684 12H10.6316C10.2828 12 10 11.5523 10 11Z" fill="white"/>
<path fill-rule="evenodd" clip-rule="evenodd" d="M14 21C14 20.4477 14.2356 20 14.5263 20H33.4737C33.7644 20 34 20.4477 34 21C34 21.5523 33.7644 22 33.4737 22H14.5263C14.2356 22 14 21.5523 14 21Z" fill="white"/>
</svg>
