<svg width="26" height="21" viewBox="0 0 26 21" fill="none" xmlns="http://www.w3.org/2000/svg">
<path d="M4.33333 16.9615C4.33333 16.7428 4.22613 16.5535 4.01172 16.3936C3.79731 16.2338 3.5434 16.1538 3.25 16.1538C2.9566 16.1538 2.70269 16.2338 2.48828 16.3936C2.27387 16.5535 2.16667 16.7428 2.16667 16.9615C2.16667 17.1803 2.27387 17.3696 2.48828 17.5294C2.70269 17.6893 2.9566 17.7692 3.25 17.7692C3.5434 17.7692 3.79731 17.6893 4.01172 17.5294C4.22613 17.3696 4.33333 17.1803 4.33333 16.9615ZM23.8333 9.69231C23.8333 9.26322 23.6133 8.88672 23.1732 8.5628C22.7331 8.23888 22.2309 8.07692 21.6667 8.07692H15.7083C15.7083 7.58894 15.9792 6.91797 16.5208 6.064C17.0625 5.21004 17.3333 4.53486 17.3333 4.03846C17.3333 3.21394 17.1528 2.60397 16.7917 2.20853C16.4306 1.8131 15.7083 1.61538 14.625 1.61538C14.3316 1.83413 14.1172 2.19171 13.9818 2.6881C13.8464 3.1845 13.6743 3.71244 13.4655 4.27194C13.2567 4.83143 12.921 5.29207 12.4583 5.65385C12.2101 5.84736 11.7756 6.23017 11.1549 6.80228C11.1098 6.84435 10.98 6.97055 10.7656 7.18089C10.5512 7.39123 10.3735 7.5637 10.2324 7.69832C10.0914 7.83293 9.8967 8.01172 9.64844 8.23468C9.40017 8.45763 9.17448 8.64273 8.97135 8.78996C8.76823 8.9372 8.551 9.08654 8.31966 9.23798C8.08833 9.38942 7.86263 9.50301 7.64258 9.57873C7.42253 9.65445 7.22222 9.69231 7.04167 9.69231H5.5V17.7692H7.04167C7.18837 17.7692 7.3661 17.7819 7.57487 17.8071C7.78364 17.8323 7.96984 17.8597 8.13346 17.8891C8.29709 17.9186 8.5115 17.9648 8.77669 18.0279C9.04188 18.091 9.23937 18.1394 9.36914 18.1731C9.49891 18.2067 9.69922 18.2593 9.97005 18.3308C10.2409 18.4023 10.4045 18.4465 10.4609 18.4633C12.842 19.0775 14.7717 19.3846 16.25 19.3846H18.2982C20.4648 19.3846 21.5482 18.6821 21.5482 17.277C21.5482 17.0583 21.52 16.8227 21.4635 16.5703C21.8021 16.4357 22.0701 16.2148 22.2676 15.9078C22.4651 15.6007 22.5638 15.2915 22.5638 14.9802C22.5638 14.6689 22.4622 14.3786 22.2591 14.1094C22.8572 13.6887 23.1562 13.1881 23.1562 12.6076C23.1562 12.3972 23.0998 12.1638 22.987 11.9072C22.8741 11.6505 22.7331 11.4507 22.5638 11.3077C22.9249 11.2993 23.2268 11.1016 23.4694 10.7145C23.712 10.3275 23.8333 9.98678 23.8333 9.69231ZM26 9.67969C26 10.4285 25.7235 11.1142 25.1706 11.7368C25.2721 12.0144 25.3229 12.3047 25.3229 12.6076C25.3229 13.2554 25.1085 13.8612 24.6797 14.4249C24.7135 14.6016 24.7305 14.7825 24.7305 14.9675C24.7305 15.8173 24.3919 16.5661 23.7148 17.2139C23.7261 18.3834 23.2465 19.3068 22.276 19.9841C21.3056 20.6614 20.0247 21 18.4336 21H16.25C15.1667 21 14.0974 20.9053 13.0423 20.716C11.9872 20.5267 10.7656 20.2512 9.3776 19.8894C8.06858 19.5529 7.28993 19.3846 7.04167 19.3846H2.16667C1.56858 19.3846 1.05794 19.2269 0.634766 18.9114C0.211589 18.5959 0 18.2151 0 17.7692V9.69231C0 9.24639 0.211589 8.86569 0.634766 8.55018C1.05794 8.23468 1.56858 8.07692 2.16667 8.07692H6.80469C7.21094 7.875 7.98394 7.22296 9.1237 6.12079C9.77821 5.48978 10.3819 4.95132 10.9349 4.50541C11.2057 4.29507 11.406 3.9354 11.5358 3.42638C11.6656 2.91737 11.8377 2.38522 12.0521 1.82993C12.2665 1.27464 12.6163 0.820312 13.1016 0.466947C13.5417 0.155649 14.0495 0 14.625 0C15.5729 0 16.4249 0.136719 17.181 0.410156C17.9371 0.683594 18.5126 1.11058 18.9076 1.69111C19.3025 2.27163 19.5 3.05409 19.5 4.03846C19.5 4.82091 19.2292 5.62861 18.6875 6.46154H21.6667C22.8403 6.46154 23.8559 6.78125 24.7135 7.42067C25.5712 8.0601 26 8.8131 26 9.67969Z" fill="white"/>
</svg>
